<?xml version="1.0" standalone="no"?>
<!DOCTYPE svg PUBLIC "-//W3C//DTD SVG 20010904//EN"
 "http://www.w3.org/TR/2001/REC-SVG-20010904/DTD/svg10.dtd">
<svg version="1.0" xmlns="http://www.w3.org/2000/svg"
 width="1067.000000pt" height="1067.000000pt" viewBox="0 0 1067.000000 1067.000000"
 preserveAspectRatio="xMidYMid meet">

<g transform="translate(0.000000,1067.000000) scale(0.100000,-0.100000)"
fill="#000000" stroke="none">
<path d="M916 10154 c-199 -48 -353 -204 -401 -405 -13 -57 -15 -557 -15
-4414 0 -4800 -5 -4406 63 -4544 42 -86 142 -186 228 -228 138 -68 -256 -63
4544 -63 4800 0 4406 -5 4544 63 86 42 186 142 228 228 68 138 63 -256 63
4544 0 4800 5 4406 -63 4544 -42 86 -142 186 -228 228 -138 68 257 63 -4549
62 -3737 -1 -4363 -3 -4414 -15z m3674 -2764 l0 -1190 755 0 755 0 0 1190 0
1190 995 0 995 0 0 -3240 0 -3240 -995 0 -995 0 0 1260 0 1260 -755 0 -755 0
0 -1260 0 -1260 -995 0 -995 0 0 3240 0 3240 995 0 995 0 0 -1190z"/>
</g>
</svg>
